<svg width="208" height="40" viewBox="0 0 208 40" fill="none" xmlns="http://www.w3.org/2000/svg">
<g clip-path="url(#clip0_2_5)">
<path d="M21.5949 29.115L28.0265 23.2844C31.2352 26.247 34.4203 26.9048 37.7993 24.6095C38.6378 24.0045 39.3274 23.2163 39.8154 22.3047L32.2149 22.4183V18.1211L40.0426 18.1684C39.7189 17.3337 39.1976 16.59 38.5234 16.0009C35.5987 13.5967 31.7085 13.4406 28.5234 16.725L21.77 10.6862C21.8599 10.5442 21.9498 10.407 22.0492 10.2744C23.469 8.44292 25.8353 7.38755 28.2347 6.78177C32.5603 5.68381 37.7804 6.30851 39.9432 7.12252C35.788 3.18026 29.8154 0.709839 23.1898 0.709839C10.6436 0.709839 0.473267 9.54088 0.473267 20.4353C0.473267 31.3298 10.6436 40.1609 23.1898 40.1609C30.194 40.1609 36.4411 37.4065 40.6247 33.0619C37.7662 33.8428 25.4898 35.9015 21.5949 29.115ZM4.22622 23.5257H2.4231V16.4694H4.20729V23.5257H4.22622ZM7.06579 23.5257H5.21061V16.4742H7.06579V23.5447V23.5257ZM12.6313 23.5683L8.05964 23.5352V16.4931L12.6313 16.5215V23.5873V23.5683ZM20.6058 23.663L13.6394 23.6109V16.5262L20.8235 16.5641C20.6799 15.4787 20.6799 14.3792 20.8235 13.2938L27.7757 19.9621L20.7714 26.6635C20.6271 25.6702 20.5717 24.6661 20.6058 23.663Z" fill="white"/>
<path d="M58.391 10.2177C58.1354 10.4448 58.2963 10.2602 58.391 10.2177V10.2177Z" fill="white"/>
<path d="M58.5992 10.0284L58.3957 10.2224C58.4667 10.1941 58.4951 10.2224 58.2868 10.6153L64.3635 16.2376C67.3876 12.7497 72.797 13.5968 74.5575 18.1306H67.5959L67.6432 21.9167H74.2073C74.0423 22.6986 73.6003 23.3944 72.9626 23.876C71.9339 24.7046 70.7046 25.2466 69.399 25.4472C68.1049 25.6019 66.7985 25.2825 65.7218 24.548C65.0876 24.1694 64.6143 23.5731 63.9376 23.0667L57.6858 28.6985C65.2106 38.5471 83.1472 32.8822 83.3555 19.8296C83.5542 7.37815 67.3261 1.67536 58.5992 10.0284Z" fill="white"/>
<path d="M97.2551 20.4591H93.8335L93.8808 13.7341L86.4175 13.6442L86.4648 32.8917H93.8808V26.4317L97.1179 26.5216L97.3025 32.9343L104.624 32.797L104.714 13.9187L97.1652 13.9612L97.2551 20.4591Z" fill="white"/>
<path d="M120.208 13.6441C119.096 13.4095 117.965 13.2796 116.829 13.256C115.459 13.2477 114.104 13.5333 112.854 14.0937C111.658 14.6304 110.581 15.4012 109.688 16.3606C108.791 17.3254 108.081 18.4489 107.596 19.6735C107.094 20.9534 106.837 22.3165 106.839 23.6914C106.839 25.0289 107.116 26.3518 107.653 27.5769C108.165 28.7791 108.919 29.8632 109.867 30.762C111.375 32.0982 113.216 33.003 115.195 33.3812C117.174 33.7593 119.218 33.5967 121.112 32.9106C122.342 32.4559 123.491 31.8072 124.515 30.9891C125.367 30.2432 126.053 29.3276 126.531 28.301L121.117 26.1429C117.283 29.7444 114.42 26.8623 113.956 24.8841L127.818 24.8367C128.59 20.0189 125.092 14.5717 120.208 13.6441ZM113.639 21.9167C115.263 18.0454 119.74 18.1306 121.103 21.8268L113.639 21.9167Z" fill="white"/>
<path d="M147.411 15.8968C146.496 15.002 145.407 14.3045 144.212 13.8476C142.989 13.3764 141.684 13.1575 140.374 13.204C137.335 13.204 133.308 14.5717 131.604 17.3261C131.008 18.1577 130.518 19.0608 130.147 20.0142C129.846 20.9965 129.705 22.0208 129.73 23.0478L129.621 39.9432L137.246 40L137.104 23.7766C137.104 22.0161 137.894 21.0649 139.191 20.6389C139.621 20.4866 140.078 20.4265 140.533 20.4623C140.988 20.4982 141.43 20.6293 141.831 20.8472C142.247 21.0193 142.604 21.3061 142.862 21.674C143.121 22.0419 143.269 22.4758 143.289 22.9248C143.63 26.1004 141.093 26.479 138.282 25.717L140.326 33.398C141.68 33.389 143.023 33.167 144.307 32.7402C150.156 30.4733 152.664 23.7766 149.654 18.7932C149.029 17.7393 148.275 16.7665 147.411 15.8968Z" fill="white"/>
<path d="M152.953 21.5996L152.982 32.6976L160.639 32.7544V21.4387C160.639 21.0364 160.606 19.8864 161.585 19.8722L165.371 19.8202L165.424 13.9612L160.464 13.9328C154.184 13.8997 152.939 15.7643 152.953 21.5996Z" fill="white"/>
<path d="M178.116 25.2106C178.116 25.9962 177.79 26.8149 176.503 26.8007C175.083 26.8007 174.827 26.0104 174.818 25.1822L174.737 13.9375L166.943 13.9659L167.023 27.0941C167.061 33.6015 174.269 34.8036 177.828 31.9545L177.88 33.0478L185.755 32.9957L185.916 14.0653L178.15 13.9564L178.116 25.2106Z" fill="white"/>
<path d="M207.856 32.8395L207.695 22.494C207.657 20.071 206.877 16.9522 204.553 15.097C203.048 13.8902 200.7 13.4784 199.12 13.2986C195.159 12.8253 190.024 14.9645 188.647 19.0203C187.638 21.9829 189.262 27.0657 191.453 27.345L188.263 32.9815L196.583 32.9484L198.883 28.3956L199.517 23.857C199.095 24.1732 198.598 24.3744 198.074 24.4407C197.551 24.5071 197.019 24.4364 196.531 24.2356C195.433 23.7624 195.277 22.8395 195.253 22.0492C195.253 21.4361 195.49 20.8468 195.916 20.4054C196.341 19.964 196.922 19.705 197.534 19.6829C198.481 19.6829 200.27 19.6829 200.256 22.7922L200.218 32.8585L207.856 32.8395Z" fill="white"/>
</g>
<defs>
<clipPath id="clip0_2_5">
<rect width="207.856" height="40" fill="white"/>
</clipPath>
</defs>
</svg>
