<svg width="18" height="18" viewBox="0 0 18 18" fill="none" xmlns="http://www.w3.org/2000/svg">
<g clip-path="url(#clip0_34_1139)">
<path d="M0 7.49053C0 11.622 3.36118 14.9795 7.48894 14.9795C9.39066 14.9795 11.1302 14.2645 12.4533 13.0925L17.226 17.8652C17.3145 17.9537 17.4287 17.9979 17.5467 17.9979C17.6646 17.9979 17.7789 17.9537 17.8673 17.8652C18.0442 17.6883 18.0442 17.4045 17.8673 17.2276L13.0909 12.4549C14.2629 11.1318 14.9779 9.39594 14.9779 7.49053C14.9779 3.35908 11.6167 0.00158691 7.48894 0.00158691C3.36118 0.00158691 0 3.35908 0 7.49053ZM14.0749 7.49053C14.0749 11.1208 11.1192 14.0765 7.48894 14.0765C3.85872 14.0765 0.902948 11.1208 0.902948 7.49053C0.902948 3.86031 3.85872 0.904535 7.48894 0.904535C11.1192 0.904535 14.0749 3.85662 14.0749 7.49053Z" fill="white"/>
</g>
<defs>
<clipPath id="clip0_34_1139">
<rect width="18" height="18" fill="white"/>
</clipPath>
</defs>
</svg>
