<svg width="815" height="400" viewBox="0 0 815 400" fill="none" xmlns="http://www.w3.org/2000/svg">
<path fill-rule="evenodd" clip-rule="evenodd" d="M317.823 183H471V336.177H441.353V233.611L221.964 453L201 432.036L420.389 212.647H317.823V183Z" fill="black" fill-opacity="0.25"/>
<path fill-rule="evenodd" clip-rule="evenodd" d="M116.823 183H270V336.177H240.353V233.611L20.9637 453L0 432.036L219.389 212.647H116.823V183Z" fill="black" fill-opacity="0.25"/>
<path fill-rule="evenodd" clip-rule="evenodd" d="M283.823 86H437V239.177H407.353V136.611L187.964 356L167 335.036L386.389 115.647H283.823V86Z" fill="black" fill-opacity="0.25"/>
<path fill-rule="evenodd" clip-rule="evenodd" d="M552.024 134H733V314.976H697.972V193.796L438.768 453L414 428.232L673.204 169.028H552.024V134Z" fill="black" fill-opacity="0.25"/>
<path fill-rule="evenodd" clip-rule="evenodd" d="M601.516 298H732V428.484H706.745V341.113L519.858 528L502 510.142L688.887 323.255H601.516V298Z" fill="black" fill-opacity="0.25"/>
<path fill-rule="evenodd" clip-rule="evenodd" d="M488.809 188H592.142V291.333H572.142V222.142L424.142 370.142L410 356L558 208H488.809V188Z" fill="white" fill-opacity="0.2"/>
<path fill-rule="evenodd" clip-rule="evenodd" d="M323.809 203H427.142V306.333H407.142V237.142L259.142 385.142L245 371L393 223H323.809V203Z" fill="white" fill-opacity="0.2"/>
<path fill-rule="evenodd" clip-rule="evenodd" d="M580.809 25H684.142V128.333H664.142V59.1421L516.142 207.142L502 193L650 45H580.809V25Z" fill="white" fill-opacity="0.2"/>
<path fill-rule="evenodd" clip-rule="evenodd" d="M340.809 43H444.142V146.333H424.142V77.1421L276.142 225.142L262 211L410 63H340.809V43Z" fill="white" fill-opacity="0.2"/>
<path fill-rule="evenodd" clip-rule="evenodd" d="M296.809 362H400.142V465.333H380.142V396.142L232.142 544.142L218 530L366 382H296.809V362Z" fill="white" fill-opacity="0.2"/>
<path fill-rule="evenodd" clip-rule="evenodd" d="M454.141 86H592V223.859H565.318V131.55L367.867 329L349 310.133L546.45 112.682H454.141V86Z" fill="white" fill-opacity="0.6"/>
<path fill-rule="evenodd" clip-rule="evenodd" d="M527.074 278H636V386.926H614.918V313.99L458.908 470L444 455.092L600.01 299.082H527.074V278Z" fill="white" fill-opacity="0.6"/>
<path fill-rule="evenodd" clip-rule="evenodd" d="M210.074 183H319V291.926H297.918V218.99L71.9075 445L57 430.092L283.01 204.082H210.074V183Z" fill="white" fill-opacity="0.6"/>
</svg>
