<svg width="18" height="18" viewBox="0 0 18 18" fill="none" xmlns="http://www.w3.org/2000/svg">
<g clip-path="url(#clip0_4_65)">
<path d="M9.59287 17.4493C9.65523 17.453 9.71758 17.4567 9.77627 17.4567C10.4549 17.4567 11.0234 17.2109 11.4672 16.7267C11.4709 16.7231 11.4782 16.7157 11.4819 16.7121C11.6286 16.536 11.7974 16.3746 11.9771 16.2022C12.1018 16.0848 12.2265 15.9601 12.3476 15.8317C12.9491 15.2045 12.9455 14.3792 12.3402 13.774L10.774 12.2077C10.4842 11.9033 10.1321 11.7455 9.7616 11.7455C9.3948 11.7455 9.039 11.9033 8.74189 12.2041L7.87623 13.0697C7.81754 13.0367 7.75518 13.0073 7.6965 12.978C7.59746 12.9267 7.50209 12.879 7.42139 12.8276C6.58141 12.2958 5.81846 11.5988 5.09219 10.7038C4.7474 10.271 4.51264 9.90052 4.34758 9.54473C4.56766 9.33932 4.77674 9.13024 4.97848 8.92483C5.05918 8.84413 5.13987 8.76343 5.22057 8.68274C5.52869 8.37462 5.69008 8.01882 5.69008 7.65202C5.69008 7.28522 5.52869 6.92942 5.22057 6.6213L4.44295 5.84368C4.35492 5.75564 4.26688 5.66394 4.17885 5.57591C4.00645 5.39618 3.82305 5.21278 3.64698 5.04771C3.35721 4.75794 3.00875 4.60388 2.64194 4.60388C2.27881 4.60388 1.92668 4.75427 1.62223 5.04771L0.646532 6.02341C0.272393 6.40122 0.0559785 6.85972 0.0119621 7.38792C-0.0577306 8.23157 0.191696 9.01653 0.382434 9.53372C0.844606 10.7845 1.54153 11.9473 2.57225 13.1908C3.82672 14.6873 5.33795 15.8721 7.06193 16.7047C7.7185 17.0165 8.6025 17.387 9.59287 17.4493ZM3.25817 12.6112C2.29348 11.4521 1.64791 10.3737 1.21875 9.21827C0.958315 8.51768 0.859278 7.97481 0.903295 7.46128C0.928971 7.14583 1.05368 6.88173 1.28844 6.64698L2.24946 5.68595C2.3375 5.60159 2.47688 5.49888 2.64194 5.49888C2.79967 5.49888 2.93172 5.59792 3.02342 5.68962C3.19582 5.85101 3.36088 6.01974 3.53694 6.19948C3.62498 6.29118 3.71668 6.38288 3.80838 6.47458L4.586 7.2522C4.68137 7.34757 4.79141 7.49063 4.79141 7.64835C4.79141 7.80608 4.6777 7.94913 4.586 8.0445C4.50164 8.12886 4.42094 8.20956 4.34024 8.29393C4.10182 8.53602 3.8744 8.7671 3.62864 8.98718C3.62131 8.99452 3.61764 8.99819 3.6103 9.00552C3.34254 9.27329 3.39022 9.54106 3.44891 9.71712C3.45258 9.72813 3.45625 9.73546 3.45991 9.74647C3.66532 10.2417 3.95143 10.7112 4.39526 11.2687C5.18756 12.2444 6.0202 13.0037 6.94088 13.5869C7.05826 13.6639 7.1793 13.7226 7.29668 13.7813C7.39572 13.8327 7.49109 13.8803 7.57178 13.9317C7.58645 13.939 7.59746 13.9464 7.61213 13.9537C7.89457 14.0931 8.17334 14.0454 8.40076 13.8143L9.37646 12.8386C9.46449 12.7506 9.60387 12.6442 9.7616 12.6442C9.91566 12.6442 10.044 12.7469 10.1321 12.8386L11.7057 14.4122C11.9661 14.6726 11.9661 14.9331 11.6947 15.2155C11.5883 15.3292 11.4709 15.4393 11.3499 15.5566C11.1665 15.7364 10.972 15.9198 10.796 16.1288C10.5209 16.4223 10.1981 16.558 9.7726 16.558C9.72859 16.558 9.68824 16.558 9.64422 16.5543C8.80791 16.4993 8.02662 16.1729 7.4434 15.8941C5.84047 15.1165 4.43194 14.0124 3.25817 12.6112Z" fill="#2162AF"/>
<path d="M10.8363 10.381C11.3278 10.5021 11.834 10.5644 12.3475 10.5644C15.4653 10.5644 18 8.3159 18 5.55387C18 2.79184 15.4653 0.543335 12.3475 0.543335C9.22968 0.543335 6.69507 2.78817 6.69507 5.55387C6.69507 6.61393 7.07654 7.64832 7.77347 8.4993C7.64142 8.7524 7.45802 8.95781 7.2306 9.10453C7.02152 9.24391 6.92249 9.48967 6.97751 9.73176C7.03253 9.97385 7.22693 10.1499 7.47269 10.1866C7.9532 10.2526 8.88488 10.2893 9.75421 9.76478C9.96695 9.63639 10.0366 9.36129 9.90827 9.14855C9.77989 8.9358 9.50478 8.86611 9.29204 8.99449C8.96925 9.18889 8.62445 9.27693 8.32001 9.30994C8.48874 9.09719 8.62079 8.85143 8.72349 8.57633C8.78218 8.41861 8.7455 8.23887 8.63179 8.11416C7.9532 7.37688 7.59374 6.49289 7.59374 5.5502C7.59374 3.28336 9.72486 1.43834 12.3475 1.43834C14.9702 1.43834 17.1013 3.28336 17.1013 5.5502C17.1013 7.81705 14.9702 9.66207 12.3475 9.66207C11.9073 9.66207 11.4708 9.61072 11.049 9.50801C10.8106 9.44932 10.5648 9.59605 10.5062 9.83814C10.4475 10.0802 10.5942 10.3223 10.8363 10.381Z" fill="#2162AF"/>
<path d="M12.3474 6.03072C12.6108 6.03072 12.8243 5.81722 12.8243 5.55387C12.8243 5.29052 12.6108 5.07703 12.3474 5.07703C12.0841 5.07703 11.8706 5.29052 11.8706 5.55387C11.8706 5.81722 12.0841 6.03072 12.3474 6.03072Z" fill="#2162AF"/>
<path d="M14.0459 6.03072C14.3093 6.03072 14.5228 5.81722 14.5228 5.55387C14.5228 5.29052 14.3093 5.07703 14.0459 5.07703C13.7826 5.07703 13.5691 5.29052 13.5691 5.55387C13.5691 5.81722 13.7826 6.03072 14.0459 6.03072Z" fill="#2162AF"/>
<path d="M10.6492 6.03072C10.9126 6.03072 11.1261 5.81722 11.1261 5.55387C11.1261 5.29052 10.9126 5.07703 10.6492 5.07703C10.3859 5.07703 10.1724 5.29052 10.1724 5.55387C10.1724 5.81722 10.3859 6.03072 10.6492 6.03072Z" fill="#2162AF"/>
</g>
<defs>
<clipPath id="clip0_4_65">
<rect width="18" height="18" fill="white"/>
</clipPath>
</defs>
</svg>
