<svg width="18" height="18" viewBox="0 0 18 18" fill="none" xmlns="http://www.w3.org/2000/svg">
<path d="M0.742232 15.0198C0.500892 15.1746 0.387053 15.4615 0.446249 15.7393C0.509999 16.017 0.728572 16.2219 1.01089 16.2584C1.75313 16.3586 3.20571 16.4132 4.53991 15.6118C4.74938 15.4843 4.82223 15.2111 4.69473 15.0016C4.56723 14.7921 4.29402 14.7193 4.08455 14.8468C3.2467 15.3477 2.34054 15.4433 1.68027 15.4205C2.14929 14.997 2.50902 14.4643 2.7458 13.8177C2.805 13.6628 2.76857 13.4807 2.65473 13.3577C1.49812 12.101 0.8925 10.5937 0.8925 8.98632C0.8925 5.134 4.49437 2.00114 8.92045 2.00114C13.3465 2.00114 16.9484 5.134 16.9484 8.98632C16.9484 12.8386 13.3465 15.9715 8.92045 15.9715C8.18277 15.9715 7.44509 15.885 6.73929 15.7074C6.49795 15.6482 6.25661 15.7939 6.20196 16.0352C6.14277 16.2766 6.28848 16.5179 6.52982 16.5726C7.30393 16.7638 8.10991 16.8594 8.925 16.8594C13.8474 16.8594 17.8454 13.3259 17.8454 8.98177C17.8454 4.71507 13.9886 1.23159 9.18455 1.10864H8.66089C3.85688 1.24525 0 4.72873 0 8.99543C0 10.7121 0.642053 12.3924 1.81232 13.7539C1.56643 14.2912 1.21125 14.7193 0.742232 15.0198Z" fill="#2162AF"/>
<path d="M9.93974 8.99538C9.93974 9.30958 9.68474 9.56913 9.36599 9.56913C9.05179 9.56913 8.79224 9.31413 8.79224 8.99538C8.79224 8.68118 9.04724 8.42163 9.36599 8.42163C9.68474 8.42163 9.93974 8.67663 9.93974 8.99538Z" fill="#2162AF"/>
<path d="M7.47611 8.99538C7.47611 9.30958 7.22111 9.56913 6.90236 9.56913C6.58817 9.56913 6.32861 9.31413 6.32861 8.99538C6.32861 8.68118 6.58361 8.42163 6.90236 8.42163C7.22111 8.42163 7.47611 8.67663 7.47611 8.99538Z" fill="#2162AF"/>
<path d="M12.4031 8.99538C12.4031 9.30958 12.1481 9.56913 11.8294 9.56913C11.5152 9.56913 11.2556 9.31413 11.2556 8.99538C11.2556 8.68118 11.5106 8.42163 11.8294 8.42163C12.1481 8.42163 12.4031 8.67663 12.4031 8.99538Z" fill="#2162AF"/>
</svg>
