<svg width="24" height="24" viewBox="0 0 24 24" fill="none" xmlns="http://www.w3.org/2000/svg">
<g clip-path="url(#clip0_34_1234)">
<path d="M0 9.98745C0 15.4961 4.48157 19.9727 9.98526 19.9727C12.5209 19.9727 14.8403 19.0194 16.6044 17.4567L22.9681 23.8204C23.086 23.9383 23.2383 23.9973 23.3956 23.9973C23.5528 23.9973 23.7052 23.9383 23.8231 23.8204C24.059 23.5845 24.059 23.2061 23.8231 22.9703L17.4545 16.6066C19.0172 14.8425 19.9705 12.528 19.9705 9.98745C19.9705 4.47886 15.4889 0.00219727 9.98526 0.00219727C4.48157 0.00219727 0 4.47886 0 9.98745ZM18.7666 9.98745C18.7666 14.8277 14.8256 18.7688 9.98526 18.7688C5.14496 18.7688 1.20393 14.8277 1.20393 9.98745C1.20393 5.14716 5.14496 1.20613 9.98526 1.20613C14.8256 1.20613 18.7666 5.14225 18.7666 9.98745Z" fill="#666666"/>
</g>
<defs>
<clipPath id="clip0_34_1234">
<rect width="24" height="24" fill="white"/>
</clipPath>
</defs>
</svg>
